<svg fill="none" height="24" viewBox="0 0 24 24" width="24" xmlns="http://www.w3.org/2000/svg"><g fill="#292d32"><path d="m21.091 6.97953c-.85-.94-2.27-1.41-4.33-1.41h-.24v-.04c0-1.68 0-3.76-3.76-3.76h-1.52c-3.75999 0-3.75999 2.09-3.75999 3.76v.05h-.24c-2.07 0-3.48.47-4.33 1.41-.99 1.1-.96 2.58-.86 3.58997l.01.07.07746.8133c.01426.1498.09493.2851.22082.3675.2398.1569.64115.4156.88172.5492.14.09.29.17.44.25 1.71.94 3.59 1.57 5.5 1.88.09.94.5 2.04 2.68999 2.04 2.19 0 2.62-1.09 2.69-2.06 2.04-.33 4.01-1.04 5.79-2.08.06-.03.1-.06.15-.09.3967-.2242.8083-.5005 1.1835-.7711.113-.0816.1853-.2076.2007-.3461l.0158-.1428.05-.47c.01-.06.01-.11.02-.18.08-1.00997.06-2.38997-.88-3.42997zm-8 6.84997c0 1.06 0 1.22-1.23 1.22s-1.23-.19-1.23-1.21v-1.26h2.46zm-4.17999-8.25997v-.04c0-1.7 0-2.33 2.32999-2.33h1.52c2.33 0 2.33.64 2.33 2.33v.05h-6.17999z"/><path d="m20.8733 13.7349c.3536-.1683.7609.112.7255.502l-.359 3.9538c-.21 2-1.03 4.04-5.43 4.04h-7.61996c-4.4 0-5.22-2.04-5.43-4.03l-.34071-3.7478c-.03504-.3855.36292-.6655.71555-.5059 1.13942.5155 3.24256 1.4301 4.54173 1.7704.16431.043.2972.1606.36915.3145.60697 1.2981 1.9234 1.9888 3.82424 1.9888 1.8822 0 3.2152-.7173 3.8242-2.0186.072-.154.2051-.2716.3695-.3148 1.3795-.363 3.6181-1.3854 4.8098-1.9524z"/></g></svg>